<?xml version="1.0" encoding="utf-8"?>
<!-- Generator: Adobe Illustrator 23.1.0, SVG Export Plug-In . SVG Version: 6.00 Build 0)  -->
<svg version="1.1" id="Слой_1" xmlns="http://www.w3.org/2000/svg" xmlns:xlink="http://www.w3.org/1999/xlink" x="0px" y="0px"
	 viewBox="0 0 368.4 494.5" style="enable-background:new 0 0 368.4 494.5;" xml:space="preserve">
<style type="text/css">
	.st0{fill-rule:evenodd;clip-rule:evenodd;fill:#999999;}
</style>
<path class="st0" d="M368.4,113.2L259.2,56.6L150,0l-11,21.3l-11,21.3l16,8.3l16,8.3l-35.3,68.2l-35.3,68.2l-9.2,1.3
	c-31.9,4.6-59.9,20.8-77.3,44.8L0,245.5L60.1,277l60.1,31.4L74.2,398L28,487.6l6.7,3.4l6.7,3.4l46.5-89.7l46.5-89.7l60.4,31.3
	l60.4,31.3l1.2-3.6c7.8-24.2,7.7-46.1-0.3-70.8c-2.4-7.5-6.1-16.7-8.3-20.6l-3.9-7.1l35.3-68.2l35.3-68.2l16,8.3l16,8.3l11-21.3
	L368.4,113.2z M157.3,20.7l94.9,49.1c52.2,27,95,49.5,95.1,50c0.2,0.5-1.3,4-3.3,7.9l-3.6,7l-95.5-49.4l-95.5-49.4l3.9-7.5
	L157.3,20.7z M174.1,66.5l63.5,32.9l63.5,32.9L266.2,199l-34.8,66.7L168,233.2l-63.4-32.5l34.7-67L174.1,66.5z M89.9,211l70.5,36.5
	l70.5,36.5l3.1,5.7c4.3,7.9,9.9,24.7,11.5,34.5c1.2,7.5,1.3,23.5,0.1,29.1l-0.5,2.3l-110.6-57.3c-87.9-45.5-110.5-57.5-110-58.4
	c1.2-2.3,13.8-11.8,21-15.7c9.3-5.2,22.8-9.7,35-11.7L89.9,211z"/>
</svg>
